<svg width="64" height="64" fill="none" xmlns="http://www.w3.org/2000/svg"><path d="M32 3C14.355 3 0 14.477 0 28.586c0 8.875 5.559 16.918 14.906 21.637-.172 2.347-.808 6.258-3.004 9.918a.993.993 0 00.047 1.097.993.993 0 001.028.395c7.57-1.684 11.12-6 12.402-8.016a40.07 40.07 0 006.621.555c17.648 0 32-11.477 32-25.582C64 14.48 49.645 3 32 3zm0 2c16.543 0 30 10.582 30 23.586 0 13.004-13.457 23.586-30 23.586a38.06 38.06 0 01-6.941-.64.997.997 0 00-1.063.5c-.672 1.226-3.195 5.058-9.281 7.054 1.71-3.734 2.137-7.39 2.226-9.418a1.006 1.006 0 00-.562-.95C7.375 44.392 2 36.864 2 28.59 2 15.582 15.457 5 32 5zm0 3.828c-13.762 0-24.957 8.973-24.957 20 0 1.344.168 2.688.496 3.996a1 1 0 001.219.723.993.993 0 00.722-1.211 14.383 14.383 0 01-.437-3.508c0-9.926 10.297-18 22.957-18 4.066 0 8.063.844 11.555 2.45a1.002 1.002 0 00.836-1.821C40.637 9.738 36.35 8.828 32 8.828zm16.055 5.02a.985.985 0 00-.653.402.999.999 0 00.22 1.395c.894.656 1.73 1.367 2.48 2.12a.991.991 0 001.414.004.996.996 0 00.004-1.414 22.529 22.529 0 00-2.723-2.328.987.987 0 00-.742-.18zM34 16.828a1.999 1.999 0 100 4 1.999 1.999 0 100-4zm19.473 2.813a.976.976 0 00-.371.136.994.994 0 00-.336 1.371c1.453 2.41 2.191 4.993 2.191 7.68 0 8.195-7.063 15.36-17.168 17.422a.998.998 0 00-.777 1.18c.093.472.511.8.976.8a.863.863 0 00.2-.023c11.05-2.254 18.769-10.223 18.769-19.379 0-3.055-.836-5.988-2.484-8.715a.998.998 0 00-1-.472zm-22.434 3.187a.981.981 0 00-.96 1c0 .602.358 1 .96 1h.809l-1.715 12h-2.094a.981.981 0 00-.96 1c0 .602.358 1 .96 1H34c.602 0 .96-.398.96-1 0-.601-.358-1-.96-1h-1.848l1.715-12H35c.602 0 .96-.398.96-1 0-.601-.358-1-.96-1h-3.96zM12.945 35.641a.99.99 0 00-.746.164l-1.64 1.144a1.002 1.002 0 00.574 1.82.989.989 0 00.57-.18l1.64-1.148a.997.997 0 00-.398-1.8zm3.442 4.03a1 1 0 00-.684.356l-1.285 1.532a.994.994 0 00.125 1.406 1.001 1.001 0 001.406-.121l1.285-1.532a1.002 1.002 0 00-.12-1.41.992.992 0 00-.727-.23zm4.742 2.95a.986.986 0 00-.942.57l-.847 1.813a1.002 1.002 0 00.906 1.426c.375 0 .735-.215.906-.578l.844-1.809a.997.997 0 00-.867-1.422zm5.363 1.664a1.004 1.004 0 00-1.16.813l-.348 1.968a.998.998 0 00.985 1.172 1 1 0 00.984-.824l.352-1.969a1.003 1.003 0 00-.813-1.16zm5.219.23c-.55.051-.957.536-.91 1.083l.172 1.996c.047.52.48.914.996.914.027 0 .058 0 .086-.004a.999.999 0 00.91-1.082l-.172-1.996a1.006 1.006 0 00-1.082-.91z" fill="#000"/></svg>