<svg width="64" height="64" fill="none" xmlns="http://www.w3.org/2000/svg"><path d="M19.2 22.976C6.848 28.48 5.888 29.376 9.536 32c1.728 1.216 1.984 1.728 1.984 4.48 0 1.728-.256 3.328-.64 3.52-1.408.896.256 7.36 1.92 7.36s3.328-6.464 1.92-7.36c-.32-.192-.64-1.408-.64-2.624 0-2.048.064-2.112 1.28-1.408.768.512 1.28 1.536 1.28 2.496 0 2.88 2.56 3.456 15.36 3.456 12.736 0 15.36-.576 15.36-3.456.064-1.344.896-2.24 4.544-4.736 6.528-4.544 6.464-4.672-7.104-10.752-6.144-2.752-11.904-4.992-12.8-4.992-.896 0-6.656 2.24-12.8 4.992zm23.488 2.816l8.96 4.032-1.984 1.408c-1.92 1.408-1.984 1.408-2.176.192-.384-2.368-3.584-2.944-15.488-2.944s-15.104.576-15.488 2.944c-.192 1.216-.256 1.216-2.176-.192l-2.048-1.408 9.728-4.352c5.312-2.368 10.112-4.16 10.688-3.968.576.128 5.056 2.112 9.984 4.288zm-.128 6.144c1.216.32 1.984.896 2.112 1.728.192 1.152-.32 1.216-12.672 1.216-11.584 0-12.8-.128-12.8-1.088 0-.576.32-1.28.704-1.536 1.984-1.216 17.856-1.472 22.656-.32z" fill="#000"/><circle cx="32" cy="32" r="28.5" stroke="#000" stroke-width="3"/></svg>