<svg width="50" height="50" fill="none" xmlns="http://www.w3.org/2000/svg"><path d="M10.313 7.188c-1.329 1.328-1.329 34.296 0 35.624.546.547 3.124.938 6.25.938 4.765 0 5.312-.156 5.312-1.563 0-1.328-.547-1.562-3.75-1.562-2.031 0-4.14-.39-4.688-.938-1.328-1.328-1.328-28.046 0-29.374.626-.626 3.516-.938 7.813-.938h6.875v9.375H37.5v4.688c0 4.14.156 4.687 1.563 4.687 1.406 0 1.562-.547 1.562-6.094v-6.093l-4.922-4.844-4.922-4.844h-9.765c-6.563 0-10.078.313-10.703.938z" fill="#000"/><path d="M25.313 32.266c-.157.547-.235 4.687-.157 9.218l.235 8.125H49.61V31.641l-11.954-.235c-9.375-.156-12.031 0-12.343.86zm10.546 10.859c1.797 1.328 1.875 1.328 5.938-2.11 2.266-1.953 4.297-3.515 4.61-3.515.234 0 .468 2.11.468 4.688v4.687h-18.75v-9.531l2.969 2.187a679.779 679.779 0 014.765 3.594z" fill="#000"/></svg>