<svg width="50" height="50" fill="none" xmlns="http://www.w3.org/2000/svg"><path d="M11.98 6.25c-3.146 0-5.73 2.584-5.73 5.73v26.04c0 3.146 2.584 5.73 5.73 5.73h26.04c3.146 0 5.73-2.584 5.73-5.73V11.98c0-3.146-2.584-5.73-5.73-5.73H11.98zm0 3.125h26.04a2.581 2.581 0 012.605 2.604v26.042a2.581 2.581 0 01-2.604 2.604H31.25V30.208h3.776c.525 0 .969-.392 1.034-.913l.39-3.125A1.04 1.04 0 0035.417 25H31.25v-3.646c0-1.149.934-2.083 2.083-2.083h2.084c.575 0 1.041-.466 1.041-1.042v-3.515c0-.54-.411-.99-.948-1.038-.061-.005-1.53-.134-3.391-.134-4.59 0-7.119 2.725-7.119 7.674V25h-4.167c-.575 0-1.041.466-1.041 1.042v3.125a1.04 1.04 0 001.041 1.041H25v10.417H11.98a2.581 2.581 0 01-2.605-2.604V11.979a2.581 2.581 0 012.604-2.604z" fill="#000"/></svg>