<svg width="38" height="38" fill="none" xmlns="http://www.w3.org/2000/svg"><g clip-path="url(#clip0)"><path d="M10.885 0C4.89 0 0 4.89 0 10.885v15.73C0 32.61 4.89 37.5 10.885 37.5h15.73c5.995 0 10.885-4.89 10.885-10.885v-15.73C37.5 4.89 32.61 0 26.615 0h-15.73zm0 2.885h15.73c4.434 0 8 3.56 8 8v15.73c0 4.434-3.56 8-8 8h-15.73c-4.434 0-8-3.56-8-8v-15.73c0-4.434 3.56-8 8-8zm18.682 2.884a2.164 2.164 0 10.001 4.328 2.164 2.164 0 000-4.328zM18.75 8.654c-5.56 0-10.096 4.535-10.096 10.096 0 5.56 4.535 10.096 10.096 10.096 5.56 0 10.096-4.535 10.096-10.096 0-5.56-4.535-10.096-10.096-10.096zm0 2.885c4 0 7.212 3.21 7.212 7.211 0 4-3.212 7.212-7.212 7.212a7.19 7.19 0 01-7.211-7.212c0-4 3.21-7.211 7.211-7.211z" fill="#000"/></g><defs><clipPath id="clip0"><path fill="#fff" d="M0 0h37.5v37.5H0z"/></clipPath></defs></svg>