<svg width="50" height="50" fill="none" xmlns="http://www.w3.org/2000/svg"><path d="M10.417 6.25a4.166 4.166 0 00-4.167 4.167v29.166a4.166 4.166 0 004.167 4.167h29.166a4.166 4.166 0 004.167-4.167V10.417a4.166 4.166 0 00-4.167-4.167H10.417zm0 4.167h29.166v29.166H10.417V10.417zm5.79 2.742c-1.786 0-2.857 1.073-2.857 2.503 0 1.429 1.072 2.498 2.678 2.498 1.785 0 2.856-1.07 2.856-2.498 0-1.43-1.07-2.503-2.677-2.503zm-2.714 7.674v14.584h5.257V20.833h-5.257zm9.595 0v14.584h5.257v-7.972c0-2.372 1.693-2.714 2.201-2.714s1.868.51 1.868 2.714v7.972H37.5v-7.972c0-4.577-2.034-6.612-4.578-6.612-2.543 0-3.9.847-4.577 2.035v-2.035h-5.257z" fill="#000"/></svg>