<svg width="50" height="50" fill="none" xmlns="http://www.w3.org/2000/svg"><path d="M15.625 4.167c-6.33 0-11.458 5.129-11.458 11.458 0 2.565.851 4.922 2.274 6.832A18.95 18.95 0 006.25 25c0 10.356 8.394 18.75 18.75 18.75.865 0 1.71-.079 2.543-.191a11.39 11.39 0 006.832 2.274c6.33 0 11.458-5.129 11.458-11.458a11.39 11.39 0 00-2.274-6.832A18.95 18.95 0 0043.75 25c0-10.356-8.394-18.75-18.75-18.75-.865 0-1.71.079-2.543.191a11.39 11.39 0 00-6.832-2.274zm0 4.166c1.569 0 3.073.501 4.346 1.449l1.359 1.017 1.684-.228c.78-.106 1.411-.154 1.986-.154 8.042 0 14.583 6.541 14.583 14.583 0 .575-.048 1.204-.154 1.986L39.2 28.67l1.017 1.36a7.231 7.231 0 011.449 4.345c0 4.02-3.271 7.292-7.292 7.292-1.569 0-3.073-.5-4.346-1.449l-1.359-1.017-1.684.228c-.782.104-1.411.154-1.986.154-8.042 0-14.583-6.541-14.583-14.583 0-.575.048-1.204.154-1.986l.228-1.684-1.017-1.36a7.231 7.231 0 01-1.449-4.345c0-4.02 3.271-7.292 7.292-7.292zm9.062 6.25c-7.834 0-8.41 4.602-8.41 5.738 0 2.258 1.294 4.012 3.507 4.862 2.352.904 5.207 1.447 6.827 1.888 2.536.694 2.214 2.091 2.214 2.295 0 2.146-2.94 2.699-4.191 2.58-1.417-.133-2.852.271-4.346-2.804-.267-.55-.757-1.753-2.23-1.753-.637 0-2.23.485-2.23 2.006 0 2.983 3.331 6.022 9.127 6.022 3.03 0 8.68-1.049 8.684-6.482 0-4.731-4.773-5.562-8.28-6.466-.961-.248-4.542-.644-4.542-2.519 0-.556.779-1.892 3.585-1.892 2.89 0 3.519 1.353 3.902 2.055.32.556.585.986.907 1.192a2.273 2.273 0 002.865-.24c.415-.43.623-.907.623-1.448 0-2.357-2.787-5.034-8.012-5.034z" fill="#000"/></svg>