<svg width="50" height="50" fill="none" xmlns="http://www.w3.org/2000/svg"><path d="M25 2.344C12.508 2.344 2.344 12.507 2.344 25c0 12.493 10.164 22.656 22.656 22.656 12.492 0 22.656-10.163 22.656-22.656C47.656 12.507 37.492 2.344 25 2.344zm0 1.562c11.631 0 21.094 9.463 21.094 21.094 0 11.631-9.463 21.094-21.094 21.094C13.369 46.094 3.906 36.63 3.906 25 3.906 13.369 13.37 3.906 25 3.906zm0 3.125C15.091 7.031 7.031 15.092 7.031 25a.781.781 0 101.563 0c0-9.047 7.36-16.406 16.406-16.406S41.406 15.954 41.406 25c0 9.047-7.36 16.406-16.406 16.406a.781.781 0 100 1.563c9.909 0 17.969-8.061 17.969-17.969 0-9.908-8.06-17.969-17.969-17.969zm7.318 8.614c-.3-.03-.63.02-.963.15-.575.228-16.202 6.817-16.816 7.078-.643.219-1.353.77-1.249 1.604.12.947 1.108 1.323 1.232 1.367l3.808 1.283c.32 1.048 1.196 3.917 1.4 4.558.101.323.359 1.134.953 1.317.455.165.906.008 1.209-.228l2.224-2.027 3.7 2.836.164.096c.337.147.638.2.896.2.275 0 .5-.06.671-.13.71-.291.995-.958 1.026-1.033l2.943-15.014c.216-.96-.104-1.474-.41-1.735a1.41 1.41 0 00-.788-.322zm-.3 1.573a1.598 1.598 0 01-.03.163l-2.885 14.786a.39.39 0 01-.146.137c-.078.03-.188.006-.275-.026L24.03 28.71l-2.791 2.55.589-3.747 7.542-7.032c.311-.29.208-.352.208-.352.02-.352-.47-.1-.47-.1l-9.514 5.89-.005-.016-4.547-1.53-.023-.01a1.2 1.2 0 01.076-.03c5.622-2.37 16.366-6.9 16.832-7.084a.833.833 0 01.09-.03zM9.377 28.934a.772.772 0 00-.31.029l-1.497.448a.78.78 0 00.449 1.497l1.497-.448a.781.781 0 00-.139-1.526zm1.425 3.692a.778.778 0 00-.291.104l-1.341.803a.78.78 0 10.8 1.341l1.342-.803a.78.78 0 00-.51-1.445zm2.583 3.18c-.2 0-.4.075-.552.228l-1.106 1.104a.78.78 0 101.103 1.107l1.106-1.105a.782.782 0 00-.55-1.334zm3.289 2.489a.78.78 0 00-.78.37l-.804 1.34a.78.78 0 00.67 1.185.78.78 0 00.67-.38l.804-1.339a.782.782 0 00-.56-1.176zm3.494 1.625a.78.78 0 00-.664.55l-.451 1.496a.783.783 0 00.747 1.009.782.782 0 00.748-.556L21 40.923a.781.781 0 00-.832-1.003z" fill="#000"/></svg>