<svg width="50" height="50" fill="none" xmlns="http://www.w3.org/2000/svg"><path d="M9 4C6.25 4 4 6.25 4 9v32c0 2.75 2.25 5 5 5h32c2.75 0 5-2.25 5-5V9c0-2.75-2.25-5-5-5H9zm0 2h32c1.669 0 3 1.332 3 3v32c0 1.669-1.331 3-3 3H9c-1.668 0-3-1.331-3-3V9c0-1.668 1.332-3 3-3zm14.396 9.992c-1.057-.002-2 .057-2.843.47 0 .002-.002.002-.002.003-.411.202-.701.46-.932.765-.115.153-.233.29-.297.64-.031.173-.05.456.133.76.182.306.549.48.783.51.163.022.53.179.565.225l.002.004s.142.372.183.703c.041.331.04.6.04.6-.001.027 0 .053.001.08 0 0 .058.867.02 1.764a7.64 7.64 0 01-.11.959c-.356-.394-.88-1.106-1.638-2.418-.84-1.458-1.51-2.764-1.51-2.764-.035-.114-.16-.468-.645-.824a2.404 2.404 0 00-1.043-.45 1 1 0 00-.195-.019l-3.941.002s-.237-.014-.52.025c-.283.04-.71.071-1.12.559-.002 0-.002.001-.003.002-.367.44-.345.925-.3 1.2.044.273.144.482.144.482l.006.011s3.224 6.779 6.867 10.77c2.646 2.898 5.361 2.947 7.602 2.947h1.671c.427 0 .813-.017 1.24-.266.428-.248.716-.855.716-1.275 0-.44.065-.787.146-.965.057-.125.102-.17.172-.207l.047.033c.166.117.441.384.74.717.598.666 1.276 1.579 2.188 2.205.652.45 1.269.649 1.738.72.293.046.522.038.683.024L37.72 34c.022 0 .044 0 .066-.002 0 0 .644.008 1.313-.392.334-.2.729-.58.857-1.133.128-.554-.033-1.127-.348-1.65v-.003c.055.09-.05-.095-.156-.27a8.245 8.245 0 00-.484-.698c-.445-.582-1.158-1.396-2.31-2.47h-.003c-.585-.544-.98-.93-1.142-1.144-.162-.214-.11-.101-.098-.156.023-.109.725-1.122 2.154-3.031.87-1.162 1.479-2.034 1.881-2.76.402-.726.692-1.354.49-2.123 0-.001 0-.003-.002-.004a1.513 1.513 0 00-.585-.818 1.82 1.82 0 00-.704-.278c-.426-.083-.798-.068-1.144-.068-.725 0-3.94.025-4.205.025-.313 0-.83.143-1.059.28-.575.346-.74.8-.74.8a.97.97 0 00-.03.06s-.663 1.47-1.517 2.923c-.865 1.474-1.505 2.177-1.89 2.502-.011-.058-.01-.011-.016-.092-.035-.412.004-.98.004-1.535 0-1.495.127-2.54.058-3.465-.034-.462-.12-.939-.424-1.377-.304-.438-.81-.723-1.31-.844-.3-.072-.642-.26-1.88-.273h-.003c-.379-.004-.743-.011-1.096-.012zm1.077 2.012c1.096.011.823.072 1.431.219.19.045.143.045.139.039-.004-.007.051.096.072.384.043.576-.064 1.721-.064 3.317 0 .435-.053 1.056.002 1.703.054.647.215 1.478.988 1.979.367.237.792.252 1.156.162.364-.09.695-.28 1.041-.557.694-.555 1.467-1.492 2.44-3.148a35.033 35.033 0 001.591-3.067l.014-.01h.016c.373 0 3.53-.025 4.205-.025.157 0 .215.01.34.014-.034.113.003.04-.145.308-.31.562-.884 1.396-1.732 2.53-1.394 1.86-2.258 2.59-2.512 3.826-.127.618.111 1.302.461 1.765.35.463.791.86 1.377 1.405 1.084 1.01 1.72 1.743 2.086 2.22.183.239.297.411.369.528.072.116.054.104.147.258.06.102.038.04.048.07L37.67 32l-3.678-.016a.998.998 0 00-.197.02s.01.01-.188-.02c-.196-.03-.51-.115-.912-.392-.485-.334-1.166-1.15-1.832-1.893-.333-.37-.665-.727-1.078-1.017-.413-.29-1.03-.564-1.697-.354a2.511 2.511 0 00-1.494 1.338c-.196.432-.212.883-.242 1.332-.034.002.005 0-.038 0h-1.671c-2.272 0-3.885.157-6.125-2.297-3.014-3.301-5.775-8.794-6.225-9.699L15.762 19c.06.023.191.072.199.078l.004.004c-.127-.093.006.037.006.037.012.03.026.06.04.088 0 0 .688 1.343 1.557 2.85.853 1.477 1.474 2.4 2.075 3.01.3.304.602.549 1.007.687.405.138.928.087 1.28-.106.718-.393.815-.973.931-1.48a8.708 8.708 0 00.186-1.566 18.499 18.499 0 00-.022-1.928c0-.019.005-.382-.052-.846-.06-.475-.125-1.057-.555-1.642l-.002-.002c-.003-.005-.007-.004-.01-.008.569-.082 1.056-.182 2.067-.172zm8.822.98l-.014.032c-.002 0-.001-.002-.004 0l.018-.032z" fill="#000"/></svg>